<?xml version="1.0" encoding="UTF-8"?>
<svg width="100px" height="100px" viewBox="0 0 100 100" version="1.1" xmlns="http://www.w3.org/2000/svg" xmlns:xlink="http://www.w3.org/1999/xlink">
    <title>group0</title>
    <defs>
        <linearGradient x1="8.42411502%" y1="-9.98755142%" x2="100%" y2="100%" id="linearGradient-1">
            <stop stop-color="#27519B" offset="0%"></stop>
            <stop stop-color="#D26735" offset="100%"></stop>
        </linearGradient>
    </defs>
    <g id="app" stroke="none" stroke-width="1" fill="none" fill-rule="evenodd">
        <g id="group0">
            <rect id="rect0" x="0" y="0" width="100" height="100"></rect>
            <g transform="translate(5.000000, 5.000000)" fill="url(#linearGradient-1)" id="Fill-1">
                <path d="M21.4035382,0 C9.56740721,0.0912618267 0,9.71448205 0,21.5724857 L0,21.5724857 L0,68.4275143 C0,80.3420852 9.65791481,90 21.5724857,90 L21.5724857,90 L68.4275143,90 C80.2855179,90 89.9087382,80.4325928 90,68.5964618 L90,68.5964618 L90,21.4035382 C89.9094924,9.62397446 80.3760255,0.0905075968 68.5964618,0 L68.5964618,0 L21.4035382,0 Z"></path>
            </g>
            <g transform="translate(8.750000, 19.227990)" fill="#FEFEFE">
                <path d="M41.36265,30.9410936 L37.4424,23.1329246 C37.39815,23.0445886 37.29165,23.0048374 37.19865,23.041644 L32.94015,24.7126673 C32.81565,24.7612521 32.6799,24.6743883 32.67615,24.5440927 L32.3018299,11.2620343 C32.29665,11.0544446 32.58765,10.9896648 32.67165,11.1795873 L36.35565,19.4905356 C36.39615,19.58108 36.50265,19.6259842 36.59865,19.5913859 L40.7454,18.0999792 C40.8669,18.0558112 40.9959,18.1382582 41.0034,18.2648731 L41.72865,30.8453963 C41.7399,31.0507775 41.4549,31.125127 41.36265,30.9410936 M66.9924,37.6237144 C61.24515,35.974039 59.34465,30.5855411 57.6954,27.4393061 C56.34165,24.8569495 55.50765,20.5859024 55.8099,18.4879216 C62.89515,0.204571526 56.65815,0.866355628 54.11115,1.76664701 C52.67115,2.27605146 48.93915,5.95671943 48.93915,5.95671943 C48.93915,5.95671943 45.0399,10.8431742 39.7809,8.37344603 C34.5219,5.90371782 37.73415,1.96466695 34.8639,0.814826276 C30.42615,-0.962936355 25.80915,6.40576093 25.80915,6.40576093 C25.80915,6.40576093 14.6394,18.8832254 14.497793,20.9635389 C14.35515,23.079923 39.6099,50.4221331 42.8724,52.1697142 C46.0929,53.8959475 76.26165,57.9314319 78.5049,53.6044386 C80.74815,49.2767092 80.31765,41.4471923 66.9924,37.6237144" id="Fill-3"></path>
                <path d="M12.8751,27.4451952 L1.8216,27.4451952 C1.0371,27.4451952 0.40035,26.8202178 0.40035,26.0494859 C0.40035,25.2794902 1.0371,24.6545127 1.8216,24.6545127 L12.8751,24.6545127 C13.6596,24.6545127 14.29635,25.2794902 14.29635,26.0494859 C14.29635,26.8202178 13.6596,27.4451952 12.8751,27.4451952" id="Fill-5"></path>
                <path d="M17.59305,35.6867997 L9.0633,35.6867997 C8.27805,35.6867997 7.6413,35.0625584 7.6413,34.2918265 C7.6413,33.5210947 8.27805,32.8961172 9.0633,32.8961172 L17.59305,32.8961172 C18.3783,32.8961172 19.01505,33.5210947 19.01505,34.2918265 C19.01505,35.0625584 18.3783,35.6867997 17.59305,35.6867997" id="Fill-7"></path>
                <path d="M5.372175,35.6867997 L4.855425,35.6867997 C4.070175,35.6867997 3.433425,35.0625584 3.433425,34.2918265 C3.433425,33.5210947 4.070175,32.8961172 4.855425,32.8961172 L5.372175,32.8961172 C6.156675,32.8961172 6.793425,33.5210947 6.793425,34.2918265 C6.793425,35.0625584 6.156675,35.6867997 5.372175,35.6867997" id="Fill-9"></path>
                <path d="M50.3967,53.8791637 L13.7052,53.5545288 C13.51395,53.5537926 13.50195,53.2762703 13.6932,53.2608115 L41.10495,50.7719438 L43.8657,52.740365 L50.3967,53.8791637 Z" id="Fill-11"></path>
            </g>
        </g>
    </g>
</svg>